<mxfile host="Electron" agent="Mozilla/5.0 (Windows NT 10.0; Win64; x64) AppleWebKit/537.36 (KHTML, like Gecko) draw.io/24.7.8 Chrome/128.0.6613.36 Electron/32.0.1 Safari/537.36" version="24.7.8">
  <diagram name="Page-1" id="H86ymrMYUlHOohqiwgpB">
    <mxGraphModel dx="2049" dy="1220" grid="1" gridSize="10" guides="1" tooltips="1" connect="1" arrows="1" fold="1" page="1" pageScale="1" pageWidth="850" pageHeight="1100" math="0" shadow="0">
      <root>
        <mxCell id="0" />
        <mxCell id="1" parent="0" />
        <mxCell id="jPTdnYjaCiqCl4uZB02P-8" style="edgeStyle=orthogonalEdgeStyle;rounded=0;orthogonalLoop=1;jettySize=auto;html=1;entryX=0.5;entryY=0;entryDx=0;entryDy=0;" parent="1" source="jPTdnYjaCiqCl4uZB02P-2" target="jPTdnYjaCiqCl4uZB02P-3" edge="1">
          <mxGeometry relative="1" as="geometry" />
        </mxCell>
        <mxCell id="jPTdnYjaCiqCl4uZB02P-2" value="start" style="rounded=1;whiteSpace=wrap;html=1;" parent="1" vertex="1">
          <mxGeometry x="110" y="20" width="120" height="60" as="geometry" />
        </mxCell>
        <mxCell id="jPTdnYjaCiqCl4uZB02P-9" style="edgeStyle=orthogonalEdgeStyle;rounded=0;orthogonalLoop=1;jettySize=auto;html=1;entryX=0.5;entryY=0;entryDx=0;entryDy=0;" parent="1" source="jPTdnYjaCiqCl4uZB02P-3" target="jPTdnYjaCiqCl4uZB02P-5" edge="1">
          <mxGeometry relative="1" as="geometry" />
        </mxCell>
        <mxCell id="jPTdnYjaCiqCl4uZB02P-3" value="Establish variables&lt;div&gt;define&lt;br&gt;&lt;div&gt;contestant 1&lt;/div&gt;&lt;div&gt;contestant 2&lt;/div&gt;&lt;div&gt;contestant 3&lt;/div&gt;&lt;div&gt;categories [a,b,c,d,e,f,g]&lt;/div&gt;&lt;div&gt;prizeRanks [1,2,3,4,5]&lt;/div&gt;&lt;div&gt;buzzer [1,2,3]&lt;/div&gt;&lt;div&gt;buzzerTimer&lt;/div&gt;&lt;div&gt;questionTimer&lt;/div&gt;&lt;div&gt;wagerAmount&lt;/div&gt;&lt;div&gt;playerScores [1,2,3]&lt;/div&gt;&lt;div&gt;gameRound&lt;/div&gt;&lt;div&gt;gameTimer&lt;/div&gt;&lt;div&gt;answer&lt;/div&gt;&lt;div&gt;questionValue&lt;/div&gt;&lt;/div&gt;&lt;div&gt;questionRank&lt;/div&gt;&lt;div&gt;question&lt;/div&gt;" style="whiteSpace=wrap;html=1;aspect=fixed;" parent="1" vertex="1">
          <mxGeometry x="5" y="160" width="330" height="330" as="geometry" />
        </mxCell>
        <mxCell id="jPTdnYjaCiqCl4uZB02P-13" style="edgeStyle=orthogonalEdgeStyle;rounded=0;orthogonalLoop=1;jettySize=auto;html=1;entryX=0.508;entryY=-0.044;entryDx=0;entryDy=0;entryPerimeter=0;" parent="1" source="jPTdnYjaCiqCl4uZB02P-4" target="jPTdnYjaCiqCl4uZB02P-312" edge="1">
          <mxGeometry relative="1" as="geometry">
            <mxPoint x="440" y="100" as="targetPoint" />
            <Array as="points">
              <mxPoint x="440" y="100" />
              <mxPoint x="441" y="100" />
            </Array>
          </mxGeometry>
        </mxCell>
        <mxCell id="jPTdnYjaCiqCl4uZB02P-4" value="GameBoardSetup" style="rounded=1;whiteSpace=wrap;html=1;fillColor=#ffe6cc;strokeColor=#d79b00;" parent="1" vertex="1">
          <mxGeometry x="380" y="20" width="120" height="60" as="geometry" />
        </mxCell>
        <mxCell id="jPTdnYjaCiqCl4uZB02P-5" value="" style="swimlane;whiteSpace=wrap;html=1;fillColor=#ffe6cc;strokeColor=#d79b00;" parent="1" vertex="1">
          <mxGeometry x="70" y="558" width="200" height="60" as="geometry" />
        </mxCell>
        <mxCell id="jPTdnYjaCiqCl4uZB02P-6" value="GameBoard Setup" style="text;html=1;align=center;verticalAlign=middle;resizable=0;points=[];autosize=1;strokeColor=none;fillColor=none;" parent="jPTdnYjaCiqCl4uZB02P-5" vertex="1">
          <mxGeometry x="40" y="30" width="120" height="30" as="geometry" />
        </mxCell>
        <mxCell id="jPTdnYjaCiqCl4uZB02P-14" style="edgeStyle=orthogonalEdgeStyle;rounded=0;orthogonalLoop=1;jettySize=auto;html=1;exitX=0.5;exitY=1;exitDx=0;exitDy=0;" parent="1" source="jPTdnYjaCiqCl4uZB02P-312" edge="1">
          <mxGeometry relative="1" as="geometry">
            <mxPoint x="440" y="180" as="sourcePoint" />
            <mxPoint x="440.0526315789475" y="200.01913875598075" as="targetPoint" />
            <Array as="points" />
          </mxGeometry>
        </mxCell>
        <mxCell id="jPTdnYjaCiqCl4uZB02P-305" style="edgeStyle=orthogonalEdgeStyle;rounded=0;orthogonalLoop=1;jettySize=auto;html=1;entryX=0.5;entryY=0;entryDx=0;entryDy=0;exitX=0.5;exitY=1;exitDx=0;exitDy=0;" parent="1" source="jPTdnYjaCiqCl4uZB02P-313" target="jPTdnYjaCiqCl4uZB02P-304" edge="1">
          <mxGeometry relative="1" as="geometry">
            <mxPoint x="440.0526315789475" y="279.98086124401925" as="sourcePoint" />
          </mxGeometry>
        </mxCell>
        <mxCell id="jPTdnYjaCiqCl4uZB02P-17" style="edgeStyle=orthogonalEdgeStyle;rounded=0;orthogonalLoop=1;jettySize=auto;html=1;entryX=0.5;entryY=0;entryDx=0;entryDy=0;exitX=0.5;exitY=1;exitDx=0;exitDy=0;" parent="1" source="jPTdnYjaCiqCl4uZB02P-314" target="jPTdnYjaCiqCl4uZB02P-16" edge="1">
          <mxGeometry relative="1" as="geometry">
            <mxPoint x="440.0000000000002" y="479.9999999999999" as="sourcePoint" />
          </mxGeometry>
        </mxCell>
        <mxCell id="jPTdnYjaCiqCl4uZB02P-16" value="return" style="rounded=1;whiteSpace=wrap;html=1;fillColor=#ffe6cc;strokeColor=#d79b00;" parent="1" vertex="1">
          <mxGeometry x="380" y="510" width="120" height="60" as="geometry" />
        </mxCell>
        <mxCell id="jPTdnYjaCiqCl4uZB02P-55" style="edgeStyle=orthogonalEdgeStyle;rounded=0;orthogonalLoop=1;jettySize=auto;html=1;entryX=0.5;entryY=0;entryDx=0;entryDy=0;" parent="1" source="jPTdnYjaCiqCl4uZB02P-19" target="jPTdnYjaCiqCl4uZB02P-22" edge="1">
          <mxGeometry relative="1" as="geometry" />
        </mxCell>
        <mxCell id="jPTdnYjaCiqCl4uZB02P-19" value="Assign playerScores = 0" style="rhombus;whiteSpace=wrap;html=1;" parent="1" vertex="1">
          <mxGeometry x="80" y="888" width="180" height="80" as="geometry" />
        </mxCell>
        <mxCell id="jPTdnYjaCiqCl4uZB02P-27" style="edgeStyle=orthogonalEdgeStyle;rounded=0;orthogonalLoop=1;jettySize=auto;html=1;entryX=0.5;entryY=0;entryDx=0;entryDy=0;" parent="1" source="jPTdnYjaCiqCl4uZB02P-20" target="jPTdnYjaCiqCl4uZB02P-26" edge="1">
          <mxGeometry relative="1" as="geometry" />
        </mxCell>
        <mxCell id="jPTdnYjaCiqCl4uZB02P-20" value="playerPriority" style="rounded=1;whiteSpace=wrap;html=1;fillColor=#fff2cc;strokeColor=#d6b656;" parent="1" vertex="1">
          <mxGeometry x="680" y="20" width="120" height="60" as="geometry" />
        </mxCell>
        <mxCell id="jPTdnYjaCiqCl4uZB02P-22" value="" style="swimlane;whiteSpace=wrap;html=1;fillColor=#fff2cc;strokeColor=#d6b656;" parent="1" vertex="1">
          <mxGeometry x="70" y="1008" width="200" height="60" as="geometry" />
        </mxCell>
        <mxCell id="jPTdnYjaCiqCl4uZB02P-23" value="playerPriority" style="text;html=1;align=center;verticalAlign=middle;resizable=0;points=[];autosize=1;strokeColor=none;fillColor=none;" parent="jPTdnYjaCiqCl4uZB02P-22" vertex="1">
          <mxGeometry x="55" y="30" width="90" height="30" as="geometry" />
        </mxCell>
        <mxCell id="jPTdnYjaCiqCl4uZB02P-36" style="edgeStyle=orthogonalEdgeStyle;rounded=0;orthogonalLoop=1;jettySize=auto;html=1;" parent="1" source="jPTdnYjaCiqCl4uZB02P-24" target="jPTdnYjaCiqCl4uZB02P-34" edge="1">
          <mxGeometry relative="1" as="geometry">
            <Array as="points">
              <mxPoint x="970" y="270" />
            </Array>
          </mxGeometry>
        </mxCell>
        <mxCell id="jPTdnYjaCiqCl4uZB02P-39" style="edgeStyle=orthogonalEdgeStyle;rounded=0;orthogonalLoop=1;jettySize=auto;html=1;" parent="1" source="jPTdnYjaCiqCl4uZB02P-24" edge="1">
          <mxGeometry relative="1" as="geometry">
            <mxPoint x="760" y="310" as="targetPoint" />
          </mxGeometry>
        </mxCell>
        <mxCell id="jPTdnYjaCiqCl4uZB02P-24" value="is contentant&lt;span style=&quot;background-color: initial;&quot;&gt;[1]&amp;nbsp;&lt;/span&gt;&lt;div&gt;&lt;span style=&quot;background-color: initial;&quot;&gt;the previous&amp;nbsp;&lt;/span&gt;&lt;div&gt;&lt;div&gt;champion?&lt;/div&gt;&lt;/div&gt;&lt;/div&gt;" style="rhombus;whiteSpace=wrap;html=1;fillColor=#fff2cc;strokeColor=#d6b656;" parent="1" vertex="1">
          <mxGeometry x="780" y="230" width="150" height="80" as="geometry" />
        </mxCell>
        <mxCell id="jPTdnYjaCiqCl4uZB02P-28" style="edgeStyle=orthogonalEdgeStyle;rounded=0;orthogonalLoop=1;jettySize=auto;html=1;" parent="1" source="jPTdnYjaCiqCl4uZB02P-26" target="jPTdnYjaCiqCl4uZB02P-24" edge="1">
          <mxGeometry relative="1" as="geometry">
            <Array as="points">
              <mxPoint x="855" y="170" />
            </Array>
          </mxGeometry>
        </mxCell>
        <mxCell id="jPTdnYjaCiqCl4uZB02P-31" style="edgeStyle=orthogonalEdgeStyle;rounded=0;orthogonalLoop=1;jettySize=auto;html=1;entryX=0.5;entryY=0;entryDx=0;entryDy=0;" parent="1" target="jPTdnYjaCiqCl4uZB02P-30" edge="1">
          <mxGeometry relative="1" as="geometry">
            <mxPoint x="670" y="170" as="sourcePoint" />
            <mxPoint x="570" y="180" as="targetPoint" />
            <Array as="points">
              <mxPoint x="640" y="170" />
            </Array>
          </mxGeometry>
        </mxCell>
        <mxCell id="jPTdnYjaCiqCl4uZB02P-26" value="is gameRound = 1?" style="rhombus;whiteSpace=wrap;html=1;fillColor=#fff2cc;strokeColor=#d6b656;" parent="1" vertex="1">
          <mxGeometry x="670" y="130" width="140" height="80" as="geometry" />
        </mxCell>
        <mxCell id="jPTdnYjaCiqCl4uZB02P-29" value="Yes" style="text;html=1;align=center;verticalAlign=middle;whiteSpace=wrap;rounded=0;" parent="1" vertex="1">
          <mxGeometry x="800" y="150" width="60" height="30" as="geometry" />
        </mxCell>
        <mxCell id="jPTdnYjaCiqCl4uZB02P-47" style="edgeStyle=orthogonalEdgeStyle;rounded=0;orthogonalLoop=1;jettySize=auto;html=1;" parent="1" source="jPTdnYjaCiqCl4uZB02P-30" edge="1">
          <mxGeometry relative="1" as="geometry">
            <mxPoint x="760" y="490" as="targetPoint" />
            <Array as="points">
              <mxPoint x="640" y="450" />
              <mxPoint x="761" y="450" />
              <mxPoint x="761" y="470" />
              <mxPoint x="760" y="470" />
            </Array>
          </mxGeometry>
        </mxCell>
        <mxCell id="jPTdnYjaCiqCl4uZB02P-30" value="assign playerPriority&amp;nbsp;&lt;div&gt;to player with lowest&amp;nbsp;&lt;/div&gt;&lt;div&gt;score&lt;/div&gt;" style="rhombus;whiteSpace=wrap;html=1;fillColor=#fff2cc;strokeColor=#d6b656;" parent="1" vertex="1">
          <mxGeometry x="560" y="225" width="160" height="90" as="geometry" />
        </mxCell>
        <mxCell id="jPTdnYjaCiqCl4uZB02P-32" value="no" style="text;html=1;align=center;verticalAlign=middle;whiteSpace=wrap;rounded=0;" parent="1" vertex="1">
          <mxGeometry x="630" y="150" width="60" height="30" as="geometry" />
        </mxCell>
        <mxCell id="jPTdnYjaCiqCl4uZB02P-51" style="edgeStyle=orthogonalEdgeStyle;rounded=0;orthogonalLoop=1;jettySize=auto;html=1;entryX=0.5;entryY=0;entryDx=0;entryDy=0;" parent="1" source="jPTdnYjaCiqCl4uZB02P-34" target="jPTdnYjaCiqCl4uZB02P-42" edge="1">
          <mxGeometry relative="1" as="geometry">
            <Array as="points">
              <mxPoint x="970" y="460" />
              <mxPoint x="760" y="460" />
            </Array>
          </mxGeometry>
        </mxCell>
        <mxCell id="jPTdnYjaCiqCl4uZB02P-34" value="Assign playerPriority&amp;nbsp;&lt;div&gt;randomly&lt;/div&gt;" style="rhombus;whiteSpace=wrap;html=1;fillColor=#fff2cc;strokeColor=#d6b656;" parent="1" vertex="1">
          <mxGeometry x="900" y="290" width="140" height="130" as="geometry" />
        </mxCell>
        <mxCell id="jPTdnYjaCiqCl4uZB02P-46" style="edgeStyle=orthogonalEdgeStyle;rounded=0;orthogonalLoop=1;jettySize=auto;html=1;entryX=0.5;entryY=0;entryDx=0;entryDy=0;" parent="1" source="jPTdnYjaCiqCl4uZB02P-37" target="jPTdnYjaCiqCl4uZB02P-42" edge="1">
          <mxGeometry relative="1" as="geometry" />
        </mxCell>
        <mxCell id="jPTdnYjaCiqCl4uZB02P-37" value="Assign playerPriority&lt;div&gt;&amp;nbsp;to contestant[1]&lt;/div&gt;" style="rhombus;whiteSpace=wrap;html=1;fillColor=#fff2cc;strokeColor=#d6b656;" parent="1" vertex="1">
          <mxGeometry x="690" y="310" width="140" height="110" as="geometry" />
        </mxCell>
        <mxCell id="jPTdnYjaCiqCl4uZB02P-40" value="no" style="text;html=1;align=center;verticalAlign=middle;whiteSpace=wrap;rounded=0;" parent="1" vertex="1">
          <mxGeometry x="920" y="245" width="60" height="30" as="geometry" />
        </mxCell>
        <mxCell id="jPTdnYjaCiqCl4uZB02P-41" value="Yes" style="text;html=1;align=center;verticalAlign=middle;whiteSpace=wrap;rounded=0;" parent="1" vertex="1">
          <mxGeometry x="740" y="245" width="60" height="30" as="geometry" />
        </mxCell>
        <mxCell id="jPTdnYjaCiqCl4uZB02P-42" value="return" style="rounded=1;whiteSpace=wrap;html=1;fillColor=#fff2cc;strokeColor=#d6b656;" parent="1" vertex="1">
          <mxGeometry x="700" y="490" width="120" height="60" as="geometry" />
        </mxCell>
        <mxCell id="jPTdnYjaCiqCl4uZB02P-53" style="edgeStyle=orthogonalEdgeStyle;rounded=0;orthogonalLoop=1;jettySize=auto;html=1;entryX=0.5;entryY=0;entryDx=0;entryDy=0;" parent="1" source="jPTdnYjaCiqCl4uZB02P-6" edge="1">
          <mxGeometry relative="1" as="geometry">
            <mxPoint x="170" y="668" as="targetPoint" />
          </mxGeometry>
        </mxCell>
        <mxCell id="jPTdnYjaCiqCl4uZB02P-122" style="edgeStyle=orthogonalEdgeStyle;rounded=0;orthogonalLoop=1;jettySize=auto;html=1;entryX=0.5;entryY=0;entryDx=0;entryDy=0;" parent="1" source="jPTdnYjaCiqCl4uZB02P-56" target="jPTdnYjaCiqCl4uZB02P-121" edge="1">
          <mxGeometry relative="1" as="geometry" />
        </mxCell>
        <mxCell id="jPTdnYjaCiqCl4uZB02P-56" value="contestants enter names&lt;div&gt;&lt;br&gt;&lt;/div&gt;" style="shape=parallelogram;perimeter=parallelogramPerimeter;whiteSpace=wrap;html=1;fixedSize=1;" parent="1" vertex="1">
          <mxGeometry x="90" y="668" width="160" height="70" as="geometry" />
        </mxCell>
        <mxCell id="jPTdnYjaCiqCl4uZB02P-322" style="edgeStyle=orthogonalEdgeStyle;rounded=0;orthogonalLoop=1;jettySize=auto;html=1;" parent="1" source="jPTdnYjaCiqCl4uZB02P-57" target="jPTdnYjaCiqCl4uZB02P-321" edge="1">
          <mxGeometry relative="1" as="geometry" />
        </mxCell>
        <mxCell id="jPTdnYjaCiqCl4uZB02P-57" value="dailyDouble" style="rounded=1;whiteSpace=wrap;html=1;fillColor=#dae8fc;strokeColor=#6c8ebf;" parent="1" vertex="1">
          <mxGeometry x="1178" y="1270" width="120" height="60" as="geometry" />
        </mxCell>
        <mxCell id="jPTdnYjaCiqCl4uZB02P-59" value="" style="swimlane;whiteSpace=wrap;html=1;fillColor=#e1d5e7;strokeColor=#9673a6;" parent="1" vertex="1">
          <mxGeometry x="1138" y="1746" width="200" height="60" as="geometry" />
        </mxCell>
        <mxCell id="jPTdnYjaCiqCl4uZB02P-60" value="checkAnswer" style="text;html=1;align=center;verticalAlign=middle;resizable=0;points=[];autosize=1;strokeColor=none;fillColor=none;" parent="jPTdnYjaCiqCl4uZB02P-59" vertex="1">
          <mxGeometry x="55" y="30" width="90" height="30" as="geometry" />
        </mxCell>
        <mxCell id="jPTdnYjaCiqCl4uZB02P-61" value="checkAnswer" style="rounded=1;whiteSpace=wrap;html=1;fillColor=#e1d5e7;strokeColor=#9673a6;" parent="1" vertex="1">
          <mxGeometry x="680" y="620" width="120" height="60" as="geometry" />
        </mxCell>
        <mxCell id="jPTdnYjaCiqCl4uZB02P-66" style="edgeStyle=orthogonalEdgeStyle;rounded=0;orthogonalLoop=1;jettySize=auto;html=1;entryX=0.5;entryY=0;entryDx=0;entryDy=0;" parent="1" source="jPTdnYjaCiqCl4uZB02P-64" target="jPTdnYjaCiqCl4uZB02P-59" edge="1">
          <mxGeometry relative="1" as="geometry" />
        </mxCell>
        <mxCell id="jPTdnYjaCiqCl4uZB02P-64" value="&amp;nbsp;enters&amp;nbsp;&lt;div&gt;&lt;span style=&quot;background-color: initial;&quot;&gt;and answer&lt;/span&gt;&lt;br&gt;&lt;/div&gt;" style="shape=parallelogram;perimeter=parallelogramPerimeter;whiteSpace=wrap;html=1;fixedSize=1;fillColor=#dae8fc;strokeColor=#6c8ebf;" parent="1" vertex="1">
          <mxGeometry x="1143" y="1656" width="190" height="60" as="geometry" />
        </mxCell>
        <mxCell id="jPTdnYjaCiqCl4uZB02P-67" value="return" style="rounded=1;whiteSpace=wrap;html=1;fillColor=#dae8fc;strokeColor=#6c8ebf;" parent="1" vertex="1">
          <mxGeometry x="1178" y="1926" width="120" height="60" as="geometry" />
        </mxCell>
        <mxCell id="jPTdnYjaCiqCl4uZB02P-80" style="edgeStyle=orthogonalEdgeStyle;rounded=0;orthogonalLoop=1;jettySize=auto;html=1;entryX=0.5;entryY=0;entryDx=0;entryDy=0;" parent="1" target="jPTdnYjaCiqCl4uZB02P-70" edge="1">
          <mxGeometry relative="1" as="geometry">
            <mxPoint x="740" y="680" as="sourcePoint" />
          </mxGeometry>
        </mxCell>
        <mxCell id="jPTdnYjaCiqCl4uZB02P-73" style="edgeStyle=orthogonalEdgeStyle;rounded=0;orthogonalLoop=1;jettySize=auto;html=1;entryX=0.5;entryY=0;entryDx=0;entryDy=0;" parent="1" source="jPTdnYjaCiqCl4uZB02P-70" target="jPTdnYjaCiqCl4uZB02P-71" edge="1">
          <mxGeometry relative="1" as="geometry" />
        </mxCell>
        <mxCell id="jPTdnYjaCiqCl4uZB02P-74" style="edgeStyle=orthogonalEdgeStyle;rounded=0;orthogonalLoop=1;jettySize=auto;html=1;entryX=0.5;entryY=0;entryDx=0;entryDy=0;exitX=0;exitY=0.5;exitDx=0;exitDy=0;" parent="1" source="jPTdnYjaCiqCl4uZB02P-70" target="jPTdnYjaCiqCl4uZB02P-72" edge="1">
          <mxGeometry relative="1" as="geometry">
            <mxPoint x="710.0588235294117" y="770.001176470588" as="sourcePoint" />
            <mxPoint x="630" y="800.06" as="targetPoint" />
          </mxGeometry>
        </mxCell>
        <mxCell id="jPTdnYjaCiqCl4uZB02P-70" value="is answer in the form of a question?" style="rhombus;whiteSpace=wrap;html=1;fillColor=#e1d5e7;strokeColor=#9673a6;" parent="1" vertex="1">
          <mxGeometry x="680" y="730" width="120" height="120" as="geometry" />
        </mxCell>
        <mxCell id="jPTdnYjaCiqCl4uZB02P-87" style="edgeStyle=orthogonalEdgeStyle;rounded=0;orthogonalLoop=1;jettySize=auto;html=1;" parent="1" source="jPTdnYjaCiqCl4uZB02P-71" target="jPTdnYjaCiqCl4uZB02P-85" edge="1">
          <mxGeometry relative="1" as="geometry">
            <Array as="points">
              <mxPoint x="770" y="880" />
            </Array>
          </mxGeometry>
        </mxCell>
        <mxCell id="jPTdnYjaCiqCl4uZB02P-91" style="edgeStyle=orthogonalEdgeStyle;rounded=0;orthogonalLoop=1;jettySize=auto;html=1;" parent="1" source="jPTdnYjaCiqCl4uZB02P-71" target="jPTdnYjaCiqCl4uZB02P-84" edge="1">
          <mxGeometry relative="1" as="geometry">
            <Array as="points">
              <mxPoint x="920" y="880" />
            </Array>
          </mxGeometry>
        </mxCell>
        <mxCell id="jPTdnYjaCiqCl4uZB02P-71" value="is answer correct?" style="rhombus;whiteSpace=wrap;html=1;fillColor=#e1d5e7;strokeColor=#9673a6;" parent="1" vertex="1">
          <mxGeometry x="810" y="840" width="80" height="80" as="geometry" />
        </mxCell>
        <mxCell id="jPTdnYjaCiqCl4uZB02P-199" style="edgeStyle=orthogonalEdgeStyle;rounded=0;orthogonalLoop=1;jettySize=auto;html=1;exitX=0.5;exitY=1;exitDx=0;exitDy=0;" parent="1" source="jPTdnYjaCiqCl4uZB02P-72" edge="1">
          <mxGeometry relative="1" as="geometry">
            <mxPoint x="655" y="930" as="sourcePoint" />
            <mxPoint x="850" y="1150" as="targetPoint" />
            <Array as="points">
              <mxPoint x="660" y="1130" />
              <mxPoint x="845" y="1130" />
            </Array>
          </mxGeometry>
        </mxCell>
        <mxCell id="jPTdnYjaCiqCl4uZB02P-72" value="answer = false" style="rhombus;whiteSpace=wrap;html=1;fillColor=#e1d5e7;strokeColor=#9673a6;" parent="1" vertex="1">
          <mxGeometry x="620" y="840" width="80" height="80" as="geometry" />
        </mxCell>
        <mxCell id="jPTdnYjaCiqCl4uZB02P-75" value="" style="swimlane;whiteSpace=wrap;html=1;fillColor=#f8cecc;strokeColor=#b85450;" parent="1" vertex="1">
          <mxGeometry x="1138" y="1836" width="200" height="60" as="geometry" />
        </mxCell>
        <mxCell id="jPTdnYjaCiqCl4uZB02P-76" value="adjustScore" style="text;html=1;align=center;verticalAlign=middle;resizable=0;points=[];autosize=1;strokeColor=none;fillColor=none;" parent="jPTdnYjaCiqCl4uZB02P-75" vertex="1">
          <mxGeometry x="55" y="30" width="90" height="30" as="geometry" />
        </mxCell>
        <mxCell id="jPTdnYjaCiqCl4uZB02P-77" style="edgeStyle=orthogonalEdgeStyle;rounded=0;orthogonalLoop=1;jettySize=auto;html=1;entryX=0.5;entryY=0;entryDx=0;entryDy=0;" parent="1" source="jPTdnYjaCiqCl4uZB02P-60" target="jPTdnYjaCiqCl4uZB02P-75" edge="1">
          <mxGeometry relative="1" as="geometry" />
        </mxCell>
        <mxCell id="jPTdnYjaCiqCl4uZB02P-78" style="edgeStyle=orthogonalEdgeStyle;rounded=0;orthogonalLoop=1;jettySize=auto;html=1;entryX=0.5;entryY=0;entryDx=0;entryDy=0;" parent="1" source="jPTdnYjaCiqCl4uZB02P-76" target="jPTdnYjaCiqCl4uZB02P-67" edge="1">
          <mxGeometry relative="1" as="geometry" />
        </mxCell>
        <mxCell id="jPTdnYjaCiqCl4uZB02P-81" value="no" style="text;html=1;align=center;verticalAlign=middle;whiteSpace=wrap;rounded=0;" parent="1" vertex="1">
          <mxGeometry x="640" y="760" width="60" height="30" as="geometry" />
        </mxCell>
        <mxCell id="jPTdnYjaCiqCl4uZB02P-82" value="return" style="rounded=1;whiteSpace=wrap;html=1;fillColor=#e1d5e7;strokeColor=#9673a6;" parent="1" vertex="1">
          <mxGeometry x="790" y="1160" width="120" height="60" as="geometry" />
        </mxCell>
        <mxCell id="jPTdnYjaCiqCl4uZB02P-83" value="Yes" style="text;html=1;align=center;verticalAlign=middle;whiteSpace=wrap;rounded=0;" parent="1" vertex="1">
          <mxGeometry x="800" y="770" width="60" height="30" as="geometry" />
        </mxCell>
        <mxCell id="jPTdnYjaCiqCl4uZB02P-316" style="edgeStyle=orthogonalEdgeStyle;rounded=0;orthogonalLoop=1;jettySize=auto;html=1;entryX=0.5;entryY=0;entryDx=0;entryDy=0;" parent="1" source="jPTdnYjaCiqCl4uZB02P-84" target="jPTdnYjaCiqCl4uZB02P-315" edge="1">
          <mxGeometry relative="1" as="geometry" />
        </mxCell>
        <mxCell id="jPTdnYjaCiqCl4uZB02P-84" value="answer = true" style="rhombus;whiteSpace=wrap;html=1;fillColor=#e1d5e7;strokeColor=#9673a6;" parent="1" vertex="1">
          <mxGeometry x="880" y="930" width="80" height="80" as="geometry" />
        </mxCell>
        <mxCell id="jPTdnYjaCiqCl4uZB02P-85" value="answer = false" style="rhombus;whiteSpace=wrap;html=1;fillColor=#e1d5e7;strokeColor=#9673a6;" parent="1" vertex="1">
          <mxGeometry x="730" y="930" width="80" height="80" as="geometry" />
        </mxCell>
        <mxCell id="jPTdnYjaCiqCl4uZB02P-88" value="Yes" style="text;html=1;align=center;verticalAlign=middle;whiteSpace=wrap;rounded=0;" parent="1" vertex="1">
          <mxGeometry x="880" y="860" width="60" height="30" as="geometry" />
        </mxCell>
        <mxCell id="jPTdnYjaCiqCl4uZB02P-90" value="no" style="text;html=1;align=center;verticalAlign=middle;whiteSpace=wrap;rounded=0;" parent="1" vertex="1">
          <mxGeometry x="760" y="860" width="60" height="30" as="geometry" />
        </mxCell>
        <mxCell id="jPTdnYjaCiqCl4uZB02P-92" style="edgeStyle=orthogonalEdgeStyle;rounded=0;orthogonalLoop=1;jettySize=auto;html=1;entryX=0.467;entryY=0.028;entryDx=0;entryDy=0;entryPerimeter=0;" parent="1" source="jPTdnYjaCiqCl4uZB02P-85" target="jPTdnYjaCiqCl4uZB02P-82" edge="1">
          <mxGeometry relative="1" as="geometry">
            <Array as="points">
              <mxPoint x="770" y="1130" />
              <mxPoint x="846" y="1130" />
            </Array>
          </mxGeometry>
        </mxCell>
        <mxCell id="jPTdnYjaCiqCl4uZB02P-101" style="edgeStyle=orthogonalEdgeStyle;rounded=0;orthogonalLoop=1;jettySize=auto;html=1;entryX=0.5;entryY=0;entryDx=0;entryDy=0;" parent="1" source="jPTdnYjaCiqCl4uZB02P-95" target="jPTdnYjaCiqCl4uZB02P-96" edge="1">
          <mxGeometry relative="1" as="geometry" />
        </mxCell>
        <mxCell id="jPTdnYjaCiqCl4uZB02P-95" value="adjustScore" style="rounded=1;whiteSpace=wrap;html=1;fillColor=#f8cecc;strokeColor=#b85450;" parent="1" vertex="1">
          <mxGeometry x="385" y="635" width="120" height="60" as="geometry" />
        </mxCell>
        <mxCell id="jPTdnYjaCiqCl4uZB02P-102" style="edgeStyle=orthogonalEdgeStyle;rounded=0;orthogonalLoop=1;jettySize=auto;html=1;entryX=0.5;entryY=0;entryDx=0;entryDy=0;exitX=0;exitY=0.5;exitDx=0;exitDy=0;" parent="1" source="jPTdnYjaCiqCl4uZB02P-96" target="jPTdnYjaCiqCl4uZB02P-97" edge="1">
          <mxGeometry relative="1" as="geometry">
            <mxPoint x="405.02857142857147" y="764.9714285714285" as="sourcePoint" />
            <mxPoint x="335" y="755" as="targetPoint" />
          </mxGeometry>
        </mxCell>
        <mxCell id="jPTdnYjaCiqCl4uZB02P-96" value="is answer = true" style="rhombus;whiteSpace=wrap;html=1;fillColor=#f8cecc;strokeColor=#b85450;" parent="1" vertex="1">
          <mxGeometry x="405" y="735" width="80" height="80" as="geometry" />
        </mxCell>
        <mxCell id="jPTdnYjaCiqCl4uZB02P-105" style="edgeStyle=orthogonalEdgeStyle;rounded=0;orthogonalLoop=1;jettySize=auto;html=1;entryX=0.5;entryY=0;entryDx=0;entryDy=0;" parent="1" source="jPTdnYjaCiqCl4uZB02P-97" target="jPTdnYjaCiqCl4uZB02P-99" edge="1">
          <mxGeometry relative="1" as="geometry" />
        </mxCell>
        <mxCell id="jPTdnYjaCiqCl4uZB02P-97" value="score = score -&lt;div&gt;&amp;nbsp;quesitonValue&amp;nbsp;&lt;/div&gt;" style="rhombus;whiteSpace=wrap;html=1;fillColor=#f8cecc;strokeColor=#b85450;" parent="1" vertex="1">
          <mxGeometry x="305" y="805" width="110" height="80" as="geometry" />
        </mxCell>
        <mxCell id="jPTdnYjaCiqCl4uZB02P-104" style="edgeStyle=orthogonalEdgeStyle;rounded=0;orthogonalLoop=1;jettySize=auto;html=1;entryX=0.5;entryY=0;entryDx=0;entryDy=0;" parent="1" source="jPTdnYjaCiqCl4uZB02P-98" target="jPTdnYjaCiqCl4uZB02P-99" edge="1">
          <mxGeometry relative="1" as="geometry" />
        </mxCell>
        <mxCell id="jPTdnYjaCiqCl4uZB02P-98" value="score = score +&lt;div&gt;&lt;div&gt;&amp;nbsp;quesitonValue&amp;nbsp;&lt;/div&gt;&lt;/div&gt;" style="rhombus;whiteSpace=wrap;html=1;fillColor=#f8cecc;strokeColor=#b85450;" parent="1" vertex="1">
          <mxGeometry x="475" y="805" width="110" height="80" as="geometry" />
        </mxCell>
        <mxCell id="jPTdnYjaCiqCl4uZB02P-99" value="return" style="rounded=1;whiteSpace=wrap;html=1;fillColor=#f8cecc;strokeColor=#b85450;" parent="1" vertex="1">
          <mxGeometry x="385" y="925" width="120" height="60" as="geometry" />
        </mxCell>
        <mxCell id="jPTdnYjaCiqCl4uZB02P-103" style="edgeStyle=orthogonalEdgeStyle;rounded=0;orthogonalLoop=1;jettySize=auto;html=1;exitX=1;exitY=0.5;exitDx=0;exitDy=0;" parent="1" source="jPTdnYjaCiqCl4uZB02P-96" target="jPTdnYjaCiqCl4uZB02P-98" edge="1">
          <mxGeometry relative="1" as="geometry">
            <mxPoint x="415" y="785" as="sourcePoint" />
            <mxPoint x="385" y="815" as="targetPoint" />
          </mxGeometry>
        </mxCell>
        <mxCell id="jPTdnYjaCiqCl4uZB02P-106" value="yes" style="text;html=1;align=center;verticalAlign=middle;resizable=0;points=[];autosize=1;strokeColor=none;fillColor=none;" parent="1" vertex="1">
          <mxGeometry x="485" y="753" width="40" height="30" as="geometry" />
        </mxCell>
        <mxCell id="jPTdnYjaCiqCl4uZB02P-107" value="no" style="text;html=1;align=center;verticalAlign=middle;resizable=0;points=[];autosize=1;strokeColor=none;fillColor=none;" parent="1" vertex="1">
          <mxGeometry x="375" y="753" width="40" height="30" as="geometry" />
        </mxCell>
        <mxCell id="jPTdnYjaCiqCl4uZB02P-111" style="edgeStyle=orthogonalEdgeStyle;rounded=0;orthogonalLoop=1;jettySize=auto;html=1;entryX=0.5;entryY=0;entryDx=0;entryDy=0;" parent="1" source="jPTdnYjaCiqCl4uZB02P-109" target="jPTdnYjaCiqCl4uZB02P-164" edge="1">
          <mxGeometry relative="1" as="geometry">
            <mxPoint x="1515" y="150" as="targetPoint" />
            <Array as="points" />
          </mxGeometry>
        </mxCell>
        <mxCell id="jPTdnYjaCiqCl4uZB02P-109" value="roundSequence" style="rounded=1;whiteSpace=wrap;html=1;fillColor=#a20025;fontColor=#ffffff;strokeColor=#6F0000;" parent="1" vertex="1">
          <mxGeometry x="1572.5" y="40" width="120" height="60" as="geometry" />
        </mxCell>
        <mxCell id="jPTdnYjaCiqCl4uZB02P-123" style="edgeStyle=orthogonalEdgeStyle;rounded=0;orthogonalLoop=1;jettySize=auto;html=1;entryX=0.5;entryY=0;entryDx=0;entryDy=0;" parent="1" source="jPTdnYjaCiqCl4uZB02P-121" target="jPTdnYjaCiqCl4uZB02P-19" edge="1">
          <mxGeometry relative="1" as="geometry" />
        </mxCell>
        <mxCell id="jPTdnYjaCiqCl4uZB02P-121" value="&lt;div&gt;Display Game Board&lt;/div&gt;" style="shape=parallelogram;perimeter=parallelogramPerimeter;whiteSpace=wrap;html=1;fixedSize=1;" parent="1" vertex="1">
          <mxGeometry x="90" y="778" width="160" height="70" as="geometry" />
        </mxCell>
        <mxCell id="jPTdnYjaCiqCl4uZB02P-126" style="edgeStyle=orthogonalEdgeStyle;rounded=0;orthogonalLoop=1;jettySize=auto;html=1;" parent="1" source="jPTdnYjaCiqCl4uZB02P-124" edge="1">
          <mxGeometry relative="1" as="geometry">
            <mxPoint x="170" y="1248" as="targetPoint" />
          </mxGeometry>
        </mxCell>
        <mxCell id="jPTdnYjaCiqCl4uZB02P-124" value="start gameTimer" style="rhombus;whiteSpace=wrap;html=1;" parent="1" vertex="1">
          <mxGeometry x="80" y="1118" width="180" height="80" as="geometry" />
        </mxCell>
        <mxCell id="jPTdnYjaCiqCl4uZB02P-125" style="edgeStyle=orthogonalEdgeStyle;rounded=0;orthogonalLoop=1;jettySize=auto;html=1;entryX=0.5;entryY=0;entryDx=0;entryDy=0;" parent="1" source="jPTdnYjaCiqCl4uZB02P-23" target="jPTdnYjaCiqCl4uZB02P-124" edge="1">
          <mxGeometry relative="1" as="geometry" />
        </mxCell>
        <mxCell id="jPTdnYjaCiqCl4uZB02P-131" style="edgeStyle=orthogonalEdgeStyle;rounded=0;orthogonalLoop=1;jettySize=auto;html=1;" parent="1" source="jPTdnYjaCiqCl4uZB02P-127" edge="1">
          <mxGeometry relative="1" as="geometry">
            <mxPoint x="1425" y="520" as="targetPoint" />
          </mxGeometry>
        </mxCell>
        <mxCell id="jPTdnYjaCiqCl4uZB02P-127" value="contestant with playerPriority picks question" style="shape=parallelogram;perimeter=parallelogramPerimeter;whiteSpace=wrap;html=1;fixedSize=1;fillColor=#a20025;fontColor=#ffffff;strokeColor=#6F0000;" parent="1" vertex="1">
          <mxGeometry x="1365" y="420" width="120" height="60" as="geometry" />
        </mxCell>
        <mxCell id="jPTdnYjaCiqCl4uZB02P-138" value="" style="swimlane;whiteSpace=wrap;html=1;fillColor=#dae8fc;strokeColor=#6c8ebf;" parent="1" vertex="1">
          <mxGeometry x="1612.5" y="778" width="90" height="60" as="geometry" />
        </mxCell>
        <mxCell id="jPTdnYjaCiqCl4uZB02P-139" value="dailyDouble" style="text;html=1;align=center;verticalAlign=middle;resizable=0;points=[];autosize=1;strokeColor=none;fillColor=none;" parent="jPTdnYjaCiqCl4uZB02P-138" vertex="1">
          <mxGeometry x="-5" y="35" width="90" height="30" as="geometry" />
        </mxCell>
        <mxCell id="jPTdnYjaCiqCl4uZB02P-184" style="edgeStyle=orthogonalEdgeStyle;rounded=0;orthogonalLoop=1;jettySize=auto;html=1;entryX=0.5;entryY=0;entryDx=0;entryDy=0;" parent="1" source="jPTdnYjaCiqCl4uZB02P-142" target="jPTdnYjaCiqCl4uZB02P-183" edge="1">
          <mxGeometry relative="1" as="geometry" />
        </mxCell>
        <mxCell id="jPTdnYjaCiqCl4uZB02P-142" value="contestant enters answer" style="shape=parallelogram;perimeter=parallelogramPerimeter;whiteSpace=wrap;html=1;fixedSize=1;fillColor=#60a917;fontColor=#ffffff;strokeColor=#2D7600;" parent="1" vertex="1">
          <mxGeometry x="670" y="1698" width="120" height="60" as="geometry" />
        </mxCell>
        <mxCell id="jPTdnYjaCiqCl4uZB02P-144" value="" style="swimlane;whiteSpace=wrap;html=1;fillColor=#e1d5e7;strokeColor=#9673a6;" parent="1" vertex="1">
          <mxGeometry x="790" y="1860" width="120" height="60" as="geometry" />
        </mxCell>
        <mxCell id="jPTdnYjaCiqCl4uZB02P-145" value="checkAnswer" style="text;html=1;align=center;verticalAlign=middle;resizable=0;points=[];autosize=1;strokeColor=none;fillColor=none;" parent="jPTdnYjaCiqCl4uZB02P-144" vertex="1">
          <mxGeometry x="10" y="30" width="90" height="30" as="geometry" />
        </mxCell>
        <mxCell id="jPTdnYjaCiqCl4uZB02P-146" value="" style="swimlane;whiteSpace=wrap;html=1;fillColor=#f8cecc;strokeColor=#b85450;" parent="1" vertex="1">
          <mxGeometry x="790" y="1950" width="110" height="60" as="geometry" />
        </mxCell>
        <mxCell id="jPTdnYjaCiqCl4uZB02P-147" value="adjustScore" style="text;html=1;align=center;verticalAlign=middle;resizable=0;points=[];autosize=1;strokeColor=none;fillColor=none;" parent="jPTdnYjaCiqCl4uZB02P-146" vertex="1">
          <mxGeometry x="15" y="20" width="90" height="30" as="geometry" />
        </mxCell>
        <mxCell id="jPTdnYjaCiqCl4uZB02P-148" value="return&lt;div&gt;&lt;br&gt;&lt;/div&gt;" style="rounded=1;whiteSpace=wrap;html=1;fillColor=#a20025;fontColor=#ffffff;strokeColor=#6F0000;" parent="1" vertex="1">
          <mxGeometry x="1640" y="560" width="120" height="60" as="geometry" />
        </mxCell>
        <mxCell id="jPTdnYjaCiqCl4uZB02P-151" style="edgeStyle=orthogonalEdgeStyle;rounded=0;orthogonalLoop=1;jettySize=auto;html=1;entryX=0.5;entryY=0;entryDx=0;entryDy=0;" parent="1" source="jPTdnYjaCiqCl4uZB02P-145" target="jPTdnYjaCiqCl4uZB02P-146" edge="1">
          <mxGeometry relative="1" as="geometry" />
        </mxCell>
        <mxCell id="jPTdnYjaCiqCl4uZB02P-213" style="edgeStyle=orthogonalEdgeStyle;rounded=0;orthogonalLoop=1;jettySize=auto;html=1;" parent="1" source="jPTdnYjaCiqCl4uZB02P-156" target="jPTdnYjaCiqCl4uZB02P-211" edge="1">
          <mxGeometry relative="1" as="geometry" />
        </mxCell>
        <mxCell id="jPTdnYjaCiqCl4uZB02P-156" value="gather question&lt;div&gt;and remove from&amp;nbsp;&lt;div&gt;game board&lt;div&gt;&lt;br&gt;&lt;/div&gt;&lt;/div&gt;&lt;/div&gt;" style="rhombus;whiteSpace=wrap;html=1;fillColor=#a20025;fontColor=#ffffff;strokeColor=#6F0000;" parent="1" vertex="1">
          <mxGeometry x="1350" y="520" width="150" height="100" as="geometry" />
        </mxCell>
        <mxCell id="jPTdnYjaCiqCl4uZB02P-197" style="edgeStyle=orthogonalEdgeStyle;rounded=0;orthogonalLoop=1;jettySize=auto;html=1;entryX=0.599;entryY=-0.035;entryDx=0;entryDy=0;entryPerimeter=0;" parent="1" source="jPTdnYjaCiqCl4uZB02P-159" edge="1" target="jPTdnYjaCiqCl4uZB02P-225">
          <mxGeometry relative="1" as="geometry">
            <mxPoint x="787.5" y="1380" as="targetPoint" />
          </mxGeometry>
        </mxCell>
        <mxCell id="jPTdnYjaCiqCl4uZB02P-159" value="start buzzerTimer" style="rounded=0;whiteSpace=wrap;html=1;fillColor=#60a917;fontColor=#ffffff;strokeColor=#2D7600;" parent="1" vertex="1">
          <mxGeometry x="677.5" y="1260" width="120" height="60" as="geometry" />
        </mxCell>
        <mxCell id="jPTdnYjaCiqCl4uZB02P-162" value="start answerTimer" style="rounded=0;whiteSpace=wrap;html=1;fillColor=#60a917;fontColor=#ffffff;strokeColor=#2D7600;" parent="1" vertex="1">
          <mxGeometry x="677.5" y="1550" width="120" height="60" as="geometry" />
        </mxCell>
        <mxCell id="jPTdnYjaCiqCl4uZB02P-165" style="edgeStyle=orthogonalEdgeStyle;rounded=0;orthogonalLoop=1;jettySize=auto;html=1;" parent="1" source="jPTdnYjaCiqCl4uZB02P-164" edge="1">
          <mxGeometry relative="1" as="geometry">
            <mxPoint x="1540" y="270" as="targetPoint" />
          </mxGeometry>
        </mxCell>
        <mxCell id="jPTdnYjaCiqCl4uZB02P-168" style="edgeStyle=orthogonalEdgeStyle;rounded=0;orthogonalLoop=1;jettySize=auto;html=1;entryX=0.5;entryY=0;entryDx=0;entryDy=0;" parent="1" source="jPTdnYjaCiqCl4uZB02P-164" target="jPTdnYjaCiqCl4uZB02P-167" edge="1">
          <mxGeometry relative="1" as="geometry" />
        </mxCell>
        <mxCell id="jPTdnYjaCiqCl4uZB02P-164" value="is gameTimer &amp;gt; 0" style="rhombus;whiteSpace=wrap;html=1;fillColor=#a20025;fontColor=#ffffff;strokeColor=#6F0000;" parent="1" vertex="1">
          <mxGeometry x="1570" y="145" width="130" height="80" as="geometry" />
        </mxCell>
        <mxCell id="jPTdnYjaCiqCl4uZB02P-166" value="yes" style="text;html=1;align=center;verticalAlign=middle;resizable=0;points=[];autosize=1;strokeColor=none;fillColor=none;" parent="1" vertex="1">
          <mxGeometry x="1540" y="158" width="40" height="30" as="geometry" />
        </mxCell>
        <mxCell id="jPTdnYjaCiqCl4uZB02P-249" style="edgeStyle=orthogonalEdgeStyle;rounded=0;orthogonalLoop=1;jettySize=auto;html=1;entryX=0.5;entryY=0;entryDx=0;entryDy=0;" parent="1" source="jPTdnYjaCiqCl4uZB02P-167" target="jPTdnYjaCiqCl4uZB02P-148" edge="1">
          <mxGeometry relative="1" as="geometry" />
        </mxCell>
        <mxCell id="jPTdnYjaCiqCl4uZB02P-167" value="end round" style="rounded=0;whiteSpace=wrap;html=1;fillColor=#a20025;fontColor=#ffffff;strokeColor=#6F0000;" parent="1" vertex="1">
          <mxGeometry x="1673" y="270" width="120" height="60" as="geometry" />
        </mxCell>
        <mxCell id="jPTdnYjaCiqCl4uZB02P-171" style="edgeStyle=orthogonalEdgeStyle;rounded=0;orthogonalLoop=1;jettySize=auto;html=1;" parent="1" source="jPTdnYjaCiqCl4uZB02P-170" target="jPTdnYjaCiqCl4uZB02P-127" edge="1">
          <mxGeometry relative="1" as="geometry" />
        </mxCell>
        <mxCell id="jPTdnYjaCiqCl4uZB02P-173" style="edgeStyle=orthogonalEdgeStyle;rounded=0;orthogonalLoop=1;jettySize=auto;html=1;" parent="1" source="jPTdnYjaCiqCl4uZB02P-170" edge="1">
          <mxGeometry relative="1" as="geometry">
            <mxPoint x="1620" y="390" as="targetPoint" />
          </mxGeometry>
        </mxCell>
        <mxCell id="jPTdnYjaCiqCl4uZB02P-170" value="is number of questions &amp;gt; 0" style="rhombus;whiteSpace=wrap;html=1;fillColor=#a20025;fontColor=#ffffff;strokeColor=#6F0000;" parent="1" vertex="1">
          <mxGeometry x="1492.5" y="260" width="100" height="80" as="geometry" />
        </mxCell>
        <mxCell id="jPTdnYjaCiqCl4uZB02P-172" value="yes" style="text;html=1;align=center;verticalAlign=middle;resizable=0;points=[];autosize=1;strokeColor=none;fillColor=none;" parent="1" vertex="1">
          <mxGeometry x="1435" y="275" width="40" height="30" as="geometry" />
        </mxCell>
        <mxCell id="jPTdnYjaCiqCl4uZB02P-250" style="edgeStyle=orthogonalEdgeStyle;rounded=0;orthogonalLoop=1;jettySize=auto;html=1;" parent="1" source="jPTdnYjaCiqCl4uZB02P-174" edge="1">
          <mxGeometry relative="1" as="geometry">
            <mxPoint x="1700" y="550" as="targetPoint" />
            <Array as="points">
              <mxPoint x="1620" y="490" />
              <mxPoint x="1701" y="490" />
              <mxPoint x="1701" y="550" />
            </Array>
          </mxGeometry>
        </mxCell>
        <mxCell id="jPTdnYjaCiqCl4uZB02P-174" value="end round" style="rounded=0;whiteSpace=wrap;html=1;fillColor=#a20025;fontColor=#ffffff;strokeColor=#6F0000;" parent="1" vertex="1">
          <mxGeometry x="1560" y="390" width="120" height="60" as="geometry" />
        </mxCell>
        <mxCell id="jPTdnYjaCiqCl4uZB02P-176" value="no" style="text;html=1;align=center;verticalAlign=middle;resizable=0;points=[];autosize=1;strokeColor=none;fillColor=none;" parent="1" vertex="1">
          <mxGeometry x="1680" y="158" width="40" height="30" as="geometry" />
        </mxCell>
        <mxCell id="jPTdnYjaCiqCl4uZB02P-177" value="no" style="text;html=1;align=center;verticalAlign=middle;resizable=0;points=[];autosize=1;strokeColor=none;fillColor=none;" parent="1" vertex="1">
          <mxGeometry x="1590" y="278" width="40" height="30" as="geometry" />
        </mxCell>
        <mxCell id="jPTdnYjaCiqCl4uZB02P-183" value="is answerTimer &amp;gt; 0" style="rhombus;whiteSpace=wrap;html=1;fillColor=#60a917;fontColor=#ffffff;strokeColor=#2D7600;" parent="1" vertex="1">
          <mxGeometry x="690" y="1778" width="80" height="80" as="geometry" />
        </mxCell>
        <mxCell id="jPTdnYjaCiqCl4uZB02P-194" value="no" style="text;html=1;align=center;verticalAlign=middle;resizable=0;points=[];autosize=1;strokeColor=none;fillColor=none;" parent="1" vertex="1">
          <mxGeometry x="640" y="1793" width="40" height="30" as="geometry" />
        </mxCell>
        <mxCell id="jPTdnYjaCiqCl4uZB02P-205" value="" style="swimlane;whiteSpace=wrap;html=1;fillColor=#60a917;strokeColor=#2D7600;fontColor=#ffffff;" parent="1" vertex="1">
          <mxGeometry x="1327.5" y="780" width="100" height="60" as="geometry" />
        </mxCell>
        <mxCell id="jPTdnYjaCiqCl4uZB02P-206" value="startBuzzTimer" style="text;html=1;align=center;verticalAlign=middle;resizable=0;points=[];autosize=1;strokeColor=none;fillColor=none;" parent="jPTdnYjaCiqCl4uZB02P-205" vertex="1">
          <mxGeometry y="25" width="100" height="30" as="geometry" />
        </mxCell>
        <mxCell id="jPTdnYjaCiqCl4uZB02P-215" style="edgeStyle=orthogonalEdgeStyle;rounded=0;orthogonalLoop=1;jettySize=auto;html=1;entryX=0.5;entryY=0;entryDx=0;entryDy=0;" parent="1" source="jPTdnYjaCiqCl4uZB02P-211" target="jPTdnYjaCiqCl4uZB02P-138" edge="1">
          <mxGeometry relative="1" as="geometry">
            <mxPoint x="1530" y="770" as="targetPoint" />
          </mxGeometry>
        </mxCell>
        <mxCell id="jPTdnYjaCiqCl4uZB02P-234" style="edgeStyle=orthogonalEdgeStyle;rounded=0;orthogonalLoop=1;jettySize=auto;html=1;" parent="1" source="jPTdnYjaCiqCl4uZB02P-211" edge="1">
          <mxGeometry relative="1" as="geometry">
            <mxPoint x="1350" y="780" as="targetPoint" />
          </mxGeometry>
        </mxCell>
        <mxCell id="jPTdnYjaCiqCl4uZB02P-211" value="is question dailyDouble" style="rhombus;whiteSpace=wrap;html=1;fillColor=#a20025;fontColor=#ffffff;strokeColor=#6F0000;" parent="1" vertex="1">
          <mxGeometry x="1385" y="650" width="80" height="80" as="geometry" />
        </mxCell>
        <mxCell id="jPTdnYjaCiqCl4uZB02P-216" value="yes" style="text;html=1;align=center;verticalAlign=middle;resizable=0;points=[];autosize=1;strokeColor=none;fillColor=none;" parent="1" vertex="1">
          <mxGeometry x="1470" y="668" width="40" height="30" as="geometry" />
        </mxCell>
        <mxCell id="jPTdnYjaCiqCl4uZB02P-217" value="no" style="text;html=1;align=center;verticalAlign=middle;resizable=0;points=[];autosize=1;strokeColor=none;fillColor=none;" parent="1" vertex="1">
          <mxGeometry x="1340" y="658" width="40" height="30" as="geometry" />
        </mxCell>
        <mxCell id="jPTdnYjaCiqCl4uZB02P-319" style="edgeStyle=orthogonalEdgeStyle;rounded=0;orthogonalLoop=1;jettySize=auto;html=1;entryX=0.5;entryY=0;entryDx=0;entryDy=0;" parent="1" source="jPTdnYjaCiqCl4uZB02P-225" target="jPTdnYjaCiqCl4uZB02P-318" edge="1">
          <mxGeometry relative="1" as="geometry" />
        </mxCell>
        <mxCell id="jPTdnYjaCiqCl4uZB02P-225" value="players buzz in" style="shape=parallelogram;perimeter=parallelogramPerimeter;whiteSpace=wrap;html=1;fixedSize=1;fillColor=#60a917;fontColor=#ffffff;strokeColor=#2D7600;" parent="1" vertex="1">
          <mxGeometry x="667.5" y="1368" width="120" height="60" as="geometry" />
        </mxCell>
        <mxCell id="jPTdnYjaCiqCl4uZB02P-231" value="return" style="rounded=1;whiteSpace=wrap;html=1;fillColor=#60a917;fontColor=#ffffff;strokeColor=#2D7600;" parent="1" vertex="1">
          <mxGeometry x="667.5" y="2240" width="120" height="60" as="geometry" />
        </mxCell>
        <mxCell id="jPTdnYjaCiqCl4uZB02P-235" value="" style="swimlane;whiteSpace=wrap;html=1;fillColor=#a20025;strokeColor=#6F0000;fontColor=#ffffff;" parent="1" vertex="1">
          <mxGeometry x="70" y="1248" width="200" height="60" as="geometry" />
        </mxCell>
        <mxCell id="jPTdnYjaCiqCl4uZB02P-236" value="roundSequence" style="text;html=1;align=center;verticalAlign=middle;resizable=0;points=[];autosize=1;strokeColor=none;fillColor=none;" parent="jPTdnYjaCiqCl4uZB02P-235" vertex="1">
          <mxGeometry x="45" y="30" width="110" height="30" as="geometry" />
        </mxCell>
        <mxCell id="jPTdnYjaCiqCl4uZB02P-253" style="edgeStyle=orthogonalEdgeStyle;rounded=0;orthogonalLoop=1;jettySize=auto;html=1;" parent="1" source="jPTdnYjaCiqCl4uZB02P-237" target="jPTdnYjaCiqCl4uZB02P-240" edge="1">
          <mxGeometry relative="1" as="geometry" />
        </mxCell>
        <mxCell id="jPTdnYjaCiqCl4uZB02P-237" value="start gameTimer" style="rhombus;whiteSpace=wrap;html=1;" parent="1" vertex="1">
          <mxGeometry x="80" y="1578" width="180" height="80" as="geometry" />
        </mxCell>
        <mxCell id="jPTdnYjaCiqCl4uZB02P-238" value="" style="swimlane;whiteSpace=wrap;html=1;fillColor=#ffe6cc;strokeColor=#d79b00;" parent="1" vertex="1">
          <mxGeometry x="70" y="1478" width="200" height="60" as="geometry" />
        </mxCell>
        <mxCell id="jPTdnYjaCiqCl4uZB02P-239" value="GameBoard Setup" style="text;html=1;align=center;verticalAlign=middle;resizable=0;points=[];autosize=1;strokeColor=none;fillColor=none;" parent="jPTdnYjaCiqCl4uZB02P-238" vertex="1">
          <mxGeometry x="40" y="30" width="120" height="30" as="geometry" />
        </mxCell>
        <mxCell id="jPTdnYjaCiqCl4uZB02P-254" style="edgeStyle=orthogonalEdgeStyle;rounded=0;orthogonalLoop=1;jettySize=auto;html=1;" parent="1" source="jPTdnYjaCiqCl4uZB02P-240" edge="1">
          <mxGeometry relative="1" as="geometry">
            <mxPoint x="170" y="1818" as="targetPoint" />
          </mxGeometry>
        </mxCell>
        <mxCell id="jPTdnYjaCiqCl4uZB02P-240" value="" style="swimlane;whiteSpace=wrap;html=1;fillColor=#a20025;strokeColor=#6F0000;fontColor=#ffffff;" parent="1" vertex="1">
          <mxGeometry x="70" y="1716" width="200" height="60" as="geometry" />
        </mxCell>
        <mxCell id="jPTdnYjaCiqCl4uZB02P-241" value="roundSequence" style="text;html=1;align=center;verticalAlign=middle;resizable=0;points=[];autosize=1;strokeColor=none;fillColor=none;" parent="jPTdnYjaCiqCl4uZB02P-240" vertex="1">
          <mxGeometry x="45" y="30" width="110" height="30" as="geometry" />
        </mxCell>
        <mxCell id="jPTdnYjaCiqCl4uZB02P-247" style="edgeStyle=orthogonalEdgeStyle;rounded=0;orthogonalLoop=1;jettySize=auto;html=1;exitX=0;exitY=0.5;exitDx=0;exitDy=0;" parent="1" source="jPTdnYjaCiqCl4uZB02P-242" edge="1">
          <mxGeometry relative="1" as="geometry">
            <mxPoint x="1630" y="120" as="targetPoint" />
            <Array as="points">
              <mxPoint x="1290" y="1040" />
              <mxPoint x="1280" y="1040" />
              <mxPoint x="1280" y="120" />
            </Array>
          </mxGeometry>
        </mxCell>
        <mxCell id="jPTdnYjaCiqCl4uZB02P-242" value="update gameBoard&lt;div&gt;updateScores&lt;/div&gt;" style="rounded=0;whiteSpace=wrap;html=1;" parent="1" vertex="1">
          <mxGeometry x="1290" y="1008" width="80" height="60" as="geometry" />
        </mxCell>
        <mxCell id="EAi8XYDNq9yRTC16jCvn-30" style="edgeStyle=orthogonalEdgeStyle;rounded=0;orthogonalLoop=1;jettySize=auto;html=1;" edge="1" parent="1" source="jPTdnYjaCiqCl4uZB02P-243">
          <mxGeometry relative="1" as="geometry">
            <mxPoint x="1640" y="111.42857142857143" as="targetPoint" />
            <Array as="points">
              <mxPoint x="1830" y="908" />
              <mxPoint x="1830" y="111" />
            </Array>
          </mxGeometry>
        </mxCell>
        <mxCell id="jPTdnYjaCiqCl4uZB02P-243" value="update gameBoard&lt;div&gt;updateScores&lt;/div&gt;" style="rounded=0;whiteSpace=wrap;html=1;" parent="1" vertex="1">
          <mxGeometry x="1590" y="878" width="120" height="60" as="geometry" />
        </mxCell>
        <mxCell id="jPTdnYjaCiqCl4uZB02P-244" style="edgeStyle=orthogonalEdgeStyle;rounded=0;orthogonalLoop=1;jettySize=auto;html=1;entryX=0.594;entryY=-0.029;entryDx=0;entryDy=0;entryPerimeter=0;" parent="1" source="jPTdnYjaCiqCl4uZB02P-138" target="jPTdnYjaCiqCl4uZB02P-243" edge="1">
          <mxGeometry relative="1" as="geometry" />
        </mxCell>
        <mxCell id="jPTdnYjaCiqCl4uZB02P-252" style="edgeStyle=orthogonalEdgeStyle;rounded=0;orthogonalLoop=1;jettySize=auto;html=1;entryX=0.5;entryY=0;entryDx=0;entryDy=0;" parent="1" source="jPTdnYjaCiqCl4uZB02P-239" target="jPTdnYjaCiqCl4uZB02P-237" edge="1">
          <mxGeometry relative="1" as="geometry" />
        </mxCell>
        <mxCell id="jPTdnYjaCiqCl4uZB02P-292" style="edgeStyle=orthogonalEdgeStyle;rounded=0;orthogonalLoop=1;jettySize=auto;html=1;entryX=0.5;entryY=0;entryDx=0;entryDy=0;" parent="1" source="jPTdnYjaCiqCl4uZB02P-255" target="jPTdnYjaCiqCl4uZB02P-291" edge="1">
          <mxGeometry relative="1" as="geometry" />
        </mxCell>
        <mxCell id="jPTdnYjaCiqCl4uZB02P-255" value="" style="swimlane;whiteSpace=wrap;html=1;fillColor=#1ba1e2;strokeColor=#006EAF;fontColor=#ffffff;" parent="1" vertex="1">
          <mxGeometry x="70" y="1818" width="200" height="60" as="geometry" />
        </mxCell>
        <mxCell id="jPTdnYjaCiqCl4uZB02P-256" value="finalJeopardy" style="text;html=1;align=center;verticalAlign=middle;resizable=0;points=[];autosize=1;strokeColor=none;fillColor=none;" parent="jPTdnYjaCiqCl4uZB02P-255" vertex="1">
          <mxGeometry x="55" y="30" width="90" height="30" as="geometry" />
        </mxCell>
        <mxCell id="jPTdnYjaCiqCl4uZB02P-257" value="end" style="rounded=1;whiteSpace=wrap;html=1;" parent="1" vertex="1">
          <mxGeometry x="110" y="2058" width="120" height="60" as="geometry" />
        </mxCell>
        <mxCell id="jPTdnYjaCiqCl4uZB02P-259" value="" style="swimlane;whiteSpace=wrap;html=1;fillColor=#1ba1e2;strokeColor=#006EAF;fontColor=#ffffff;" parent="1" vertex="1">
          <mxGeometry x="340" y="1070" width="200" height="60" as="geometry" />
        </mxCell>
        <mxCell id="jPTdnYjaCiqCl4uZB02P-260" value="finalJeopardy" style="text;html=1;align=center;verticalAlign=middle;resizable=0;points=[];autosize=1;strokeColor=none;fillColor=none;" parent="jPTdnYjaCiqCl4uZB02P-259" vertex="1">
          <mxGeometry x="55" y="30" width="90" height="30" as="geometry" />
        </mxCell>
        <mxCell id="jPTdnYjaCiqCl4uZB02P-301" style="edgeStyle=orthogonalEdgeStyle;rounded=0;orthogonalLoop=1;jettySize=auto;html=1;entryX=0.5;entryY=0;entryDx=0;entryDy=0;" parent="1" source="jPTdnYjaCiqCl4uZB02P-262" target="jPTdnYjaCiqCl4uZB02P-274" edge="1">
          <mxGeometry relative="1" as="geometry" />
        </mxCell>
        <mxCell id="jPTdnYjaCiqCl4uZB02P-262" value="players input&lt;div&gt;wager&lt;/div&gt;" style="shape=parallelogram;perimeter=parallelogramPerimeter;whiteSpace=wrap;html=1;fixedSize=1;fillColor=#1ba1e2;fontColor=#ffffff;strokeColor=#006EAF;" parent="1" vertex="1">
          <mxGeometry x="380" y="1270" width="120" height="60" as="geometry" />
        </mxCell>
        <mxCell id="jPTdnYjaCiqCl4uZB02P-295" style="edgeStyle=orthogonalEdgeStyle;rounded=0;orthogonalLoop=1;jettySize=auto;html=1;" parent="1" source="jPTdnYjaCiqCl4uZB02P-264" target="jPTdnYjaCiqCl4uZB02P-270" edge="1">
          <mxGeometry relative="1" as="geometry" />
        </mxCell>
        <mxCell id="jPTdnYjaCiqCl4uZB02P-264" value="" style="swimlane;whiteSpace=wrap;html=1;fillColor=#e1d5e7;strokeColor=#9673a6;" parent="1" vertex="1">
          <mxGeometry x="395" y="1590" width="90" height="60" as="geometry" />
        </mxCell>
        <mxCell id="jPTdnYjaCiqCl4uZB02P-265" value="checkAnswer" style="text;html=1;align=center;verticalAlign=middle;resizable=0;points=[];autosize=1;strokeColor=none;fillColor=none;" parent="jPTdnYjaCiqCl4uZB02P-264" vertex="1">
          <mxGeometry y="30" width="90" height="30" as="geometry" />
        </mxCell>
        <mxCell id="jPTdnYjaCiqCl4uZB02P-270" value="" style="swimlane;whiteSpace=wrap;html=1;fillColor=#f8cecc;strokeColor=#b85450;" parent="1" vertex="1">
          <mxGeometry x="390" y="1680" width="90" height="60" as="geometry" />
        </mxCell>
        <mxCell id="jPTdnYjaCiqCl4uZB02P-271" value="adjustScore" style="text;html=1;align=center;verticalAlign=middle;resizable=0;points=[];autosize=1;strokeColor=none;fillColor=none;" parent="jPTdnYjaCiqCl4uZB02P-270" vertex="1">
          <mxGeometry y="30" width="90" height="30" as="geometry" />
        </mxCell>
        <mxCell id="jPTdnYjaCiqCl4uZB02P-294" style="edgeStyle=orthogonalEdgeStyle;rounded=0;orthogonalLoop=1;jettySize=auto;html=1;" parent="1" source="jPTdnYjaCiqCl4uZB02P-272" target="jPTdnYjaCiqCl4uZB02P-264" edge="1">
          <mxGeometry relative="1" as="geometry" />
        </mxCell>
        <mxCell id="jPTdnYjaCiqCl4uZB02P-272" value="players input answer" style="shape=parallelogram;perimeter=parallelogramPerimeter;whiteSpace=wrap;html=1;fixedSize=1;fillColor=#1ba1e2;fontColor=#ffffff;strokeColor=#006EAF;" parent="1" vertex="1">
          <mxGeometry x="365" y="1490" width="150" height="60" as="geometry" />
        </mxCell>
        <mxCell id="jPTdnYjaCiqCl4uZB02P-302" style="edgeStyle=orthogonalEdgeStyle;rounded=0;orthogonalLoop=1;jettySize=auto;html=1;entryX=0.5;entryY=0;entryDx=0;entryDy=0;" parent="1" source="jPTdnYjaCiqCl4uZB02P-273" target="jPTdnYjaCiqCl4uZB02P-262" edge="1">
          <mxGeometry relative="1" as="geometry" />
        </mxCell>
        <mxCell id="jPTdnYjaCiqCl4uZB02P-273" value="display category&lt;div&gt;and scores&lt;/div&gt;" style="rounded=0;whiteSpace=wrap;html=1;" parent="1" vertex="1">
          <mxGeometry x="380" y="1170" width="120" height="60" as="geometry" />
        </mxCell>
        <mxCell id="jPTdnYjaCiqCl4uZB02P-300" style="edgeStyle=orthogonalEdgeStyle;rounded=0;orthogonalLoop=1;jettySize=auto;html=1;entryX=0.5;entryY=0;entryDx=0;entryDy=0;" parent="1" source="jPTdnYjaCiqCl4uZB02P-274" target="jPTdnYjaCiqCl4uZB02P-272" edge="1">
          <mxGeometry relative="1" as="geometry" />
        </mxCell>
        <mxCell id="jPTdnYjaCiqCl4uZB02P-274" value="display question" style="whiteSpace=wrap;html=1;" parent="1" vertex="1">
          <mxGeometry x="380" y="1378" width="120" height="60" as="geometry" />
        </mxCell>
        <mxCell id="jPTdnYjaCiqCl4uZB02P-283" value="" style="swimlane;whiteSpace=wrap;html=1;fillColor=#e1d5e7;strokeColor=#9673a6;" parent="1" vertex="1">
          <mxGeometry x="392.5" y="1780" width="90" height="60" as="geometry" />
        </mxCell>
        <mxCell id="jPTdnYjaCiqCl4uZB02P-284" value="checkAnswer" style="text;html=1;align=center;verticalAlign=middle;resizable=0;points=[];autosize=1;strokeColor=none;fillColor=none;" parent="jPTdnYjaCiqCl4uZB02P-283" vertex="1">
          <mxGeometry y="30" width="90" height="30" as="geometry" />
        </mxCell>
        <mxCell id="jPTdnYjaCiqCl4uZB02P-285" value="" style="swimlane;whiteSpace=wrap;html=1;fillColor=#f8cecc;strokeColor=#b85450;" parent="1" vertex="1">
          <mxGeometry x="392.5" y="1880" width="90" height="60" as="geometry" />
        </mxCell>
        <mxCell id="jPTdnYjaCiqCl4uZB02P-286" value="adjustScore" style="text;html=1;align=center;verticalAlign=middle;resizable=0;points=[];autosize=1;strokeColor=none;fillColor=none;" parent="jPTdnYjaCiqCl4uZB02P-285" vertex="1">
          <mxGeometry y="30" width="90" height="30" as="geometry" />
        </mxCell>
        <mxCell id="jPTdnYjaCiqCl4uZB02P-287" value="" style="swimlane;whiteSpace=wrap;html=1;fillColor=#e1d5e7;strokeColor=#9673a6;" parent="1" vertex="1">
          <mxGeometry x="392.5" y="1970" width="90" height="60" as="geometry" />
        </mxCell>
        <mxCell id="jPTdnYjaCiqCl4uZB02P-288" value="checkAnswer" style="text;html=1;align=center;verticalAlign=middle;resizable=0;points=[];autosize=1;strokeColor=none;fillColor=none;" parent="jPTdnYjaCiqCl4uZB02P-287" vertex="1">
          <mxGeometry y="30" width="90" height="30" as="geometry" />
        </mxCell>
        <mxCell id="jPTdnYjaCiqCl4uZB02P-289" value="" style="swimlane;whiteSpace=wrap;html=1;fillColor=#f8cecc;strokeColor=#b85450;" parent="1" vertex="1">
          <mxGeometry x="392.5" y="2070" width="90" height="60" as="geometry" />
        </mxCell>
        <mxCell id="jPTdnYjaCiqCl4uZB02P-290" value="adjustScore" style="text;html=1;align=center;verticalAlign=middle;resizable=0;points=[];autosize=1;strokeColor=none;fillColor=none;" parent="jPTdnYjaCiqCl4uZB02P-289" vertex="1">
          <mxGeometry y="30" width="90" height="30" as="geometry" />
        </mxCell>
        <mxCell id="jPTdnYjaCiqCl4uZB02P-293" style="edgeStyle=orthogonalEdgeStyle;rounded=0;orthogonalLoop=1;jettySize=auto;html=1;entryX=0.5;entryY=0;entryDx=0;entryDy=0;" parent="1" source="jPTdnYjaCiqCl4uZB02P-291" target="jPTdnYjaCiqCl4uZB02P-257" edge="1">
          <mxGeometry relative="1" as="geometry" />
        </mxCell>
        <mxCell id="jPTdnYjaCiqCl4uZB02P-291" value="display&lt;div&gt;winner&lt;/div&gt;" style="shape=parallelogram;perimeter=parallelogramPerimeter;whiteSpace=wrap;html=1;fixedSize=1;" parent="1" vertex="1">
          <mxGeometry x="110" y="1948" width="120" height="60" as="geometry" />
        </mxCell>
        <mxCell id="jPTdnYjaCiqCl4uZB02P-296" style="edgeStyle=orthogonalEdgeStyle;rounded=0;orthogonalLoop=1;jettySize=auto;html=1;entryX=0.5;entryY=0;entryDx=0;entryDy=0;" parent="1" source="jPTdnYjaCiqCl4uZB02P-271" target="jPTdnYjaCiqCl4uZB02P-283" edge="1">
          <mxGeometry relative="1" as="geometry" />
        </mxCell>
        <mxCell id="jPTdnYjaCiqCl4uZB02P-297" style="edgeStyle=orthogonalEdgeStyle;rounded=0;orthogonalLoop=1;jettySize=auto;html=1;" parent="1" source="jPTdnYjaCiqCl4uZB02P-284" target="jPTdnYjaCiqCl4uZB02P-285" edge="1">
          <mxGeometry relative="1" as="geometry" />
        </mxCell>
        <mxCell id="jPTdnYjaCiqCl4uZB02P-298" style="edgeStyle=orthogonalEdgeStyle;rounded=0;orthogonalLoop=1;jettySize=auto;html=1;entryX=0.5;entryY=0;entryDx=0;entryDy=0;" parent="1" source="jPTdnYjaCiqCl4uZB02P-286" target="jPTdnYjaCiqCl4uZB02P-287" edge="1">
          <mxGeometry relative="1" as="geometry" />
        </mxCell>
        <mxCell id="jPTdnYjaCiqCl4uZB02P-299" style="edgeStyle=orthogonalEdgeStyle;rounded=0;orthogonalLoop=1;jettySize=auto;html=1;entryX=0.5;entryY=0;entryDx=0;entryDy=0;" parent="1" source="jPTdnYjaCiqCl4uZB02P-288" target="jPTdnYjaCiqCl4uZB02P-289" edge="1">
          <mxGeometry relative="1" as="geometry" />
        </mxCell>
        <mxCell id="jPTdnYjaCiqCl4uZB02P-303" style="edgeStyle=orthogonalEdgeStyle;rounded=0;orthogonalLoop=1;jettySize=auto;html=1;entryX=0.5;entryY=0;entryDx=0;entryDy=0;" parent="1" source="jPTdnYjaCiqCl4uZB02P-260" target="jPTdnYjaCiqCl4uZB02P-273" edge="1">
          <mxGeometry relative="1" as="geometry" />
        </mxCell>
        <mxCell id="jPTdnYjaCiqCl4uZB02P-307" style="edgeStyle=orthogonalEdgeStyle;rounded=0;orthogonalLoop=1;jettySize=auto;html=1;entryX=0.5;entryY=0;entryDx=0;entryDy=0;" parent="1" source="jPTdnYjaCiqCl4uZB02P-304" edge="1">
          <mxGeometry relative="1" as="geometry">
            <mxPoint x="440" y="400" as="targetPoint" />
          </mxGeometry>
        </mxCell>
        <mxCell id="jPTdnYjaCiqCl4uZB02P-304" value="assign dailyDouble to random question" style="shape=parallelogram;perimeter=parallelogramPerimeter;whiteSpace=wrap;html=1;fixedSize=1;fillColor=#ffe6cc;strokeColor=#d79b00;" parent="1" vertex="1">
          <mxGeometry x="360" y="310" width="160" height="60" as="geometry" />
        </mxCell>
        <mxCell id="jPTdnYjaCiqCl4uZB02P-308" value="prize values x 2&lt;div&gt;dailyDouble x 2&lt;/div&gt;" style="rounded=0;whiteSpace=wrap;html=1;" parent="1" vertex="1">
          <mxGeometry x="80" y="1368" width="155" height="60" as="geometry" />
        </mxCell>
        <mxCell id="jPTdnYjaCiqCl4uZB02P-309" style="edgeStyle=orthogonalEdgeStyle;rounded=0;orthogonalLoop=1;jettySize=auto;html=1;entryX=0.581;entryY=0.033;entryDx=0;entryDy=0;entryPerimeter=0;" parent="1" source="jPTdnYjaCiqCl4uZB02P-236" target="jPTdnYjaCiqCl4uZB02P-308" edge="1">
          <mxGeometry relative="1" as="geometry" />
        </mxCell>
        <mxCell id="jPTdnYjaCiqCl4uZB02P-310" style="edgeStyle=orthogonalEdgeStyle;rounded=0;orthogonalLoop=1;jettySize=auto;html=1;entryX=0.438;entryY=-0.05;entryDx=0;entryDy=0;entryPerimeter=0;" parent="1" source="jPTdnYjaCiqCl4uZB02P-308" target="jPTdnYjaCiqCl4uZB02P-238" edge="1">
          <mxGeometry relative="1" as="geometry" />
        </mxCell>
        <mxCell id="jPTdnYjaCiqCl4uZB02P-312" value="assign questionRank" style="rounded=0;whiteSpace=wrap;html=1;fillColor=#ffe6cc;strokeColor=#d79b00;" parent="1" vertex="1">
          <mxGeometry x="380" y="110" width="120" height="60" as="geometry" />
        </mxCell>
        <mxCell id="jPTdnYjaCiqCl4uZB02P-313" value="Assign to arrays&amp;nbsp;&lt;div&gt;categories and prizeRanks&lt;/div&gt;" style="rounded=0;whiteSpace=wrap;html=1;fillColor=#ffe6cc;strokeColor=#d79b00;" parent="1" vertex="1">
          <mxGeometry x="380" y="200" width="120" height="60" as="geometry" />
        </mxCell>
        <mxCell id="jPTdnYjaCiqCl4uZB02P-314" value="assign questionValue" style="rounded=0;whiteSpace=wrap;html=1;fillColor=#ffe6cc;strokeColor=#d79b00;" parent="1" vertex="1">
          <mxGeometry x="380" y="400" width="120" height="60" as="geometry" />
        </mxCell>
        <mxCell id="jPTdnYjaCiqCl4uZB02P-315" value="set playerPriority to current player" style="rounded=0;whiteSpace=wrap;html=1;fillColor=#e1d5e7;strokeColor=#9673a6;" parent="1" vertex="1">
          <mxGeometry x="860" y="1050" width="120" height="60" as="geometry" />
        </mxCell>
        <mxCell id="jPTdnYjaCiqCl4uZB02P-317" style="edgeStyle=orthogonalEdgeStyle;rounded=0;orthogonalLoop=1;jettySize=auto;html=1;entryX=0.56;entryY=-0.045;entryDx=0;entryDy=0;entryPerimeter=0;" parent="1" source="jPTdnYjaCiqCl4uZB02P-315" target="jPTdnYjaCiqCl4uZB02P-82" edge="1">
          <mxGeometry relative="1" as="geometry" />
        </mxCell>
        <mxCell id="jPTdnYjaCiqCl4uZB02P-318" value="set playerPriority to current player" style="rounded=0;whiteSpace=wrap;html=1;fillColor=#60a917;strokeColor=#2D7600;fontColor=#ffffff;" parent="1" vertex="1">
          <mxGeometry x="667.5" y="1460" width="120" height="60" as="geometry" />
        </mxCell>
        <mxCell id="EAi8XYDNq9yRTC16jCvn-27" style="edgeStyle=orthogonalEdgeStyle;rounded=0;orthogonalLoop=1;jettySize=auto;html=1;entryX=0.5;entryY=0;entryDx=0;entryDy=0;" edge="1" parent="1" source="jPTdnYjaCiqCl4uZB02P-321" target="EAi8XYDNq9yRTC16jCvn-25">
          <mxGeometry relative="1" as="geometry" />
        </mxCell>
        <mxCell id="jPTdnYjaCiqCl4uZB02P-321" value="set playerPriority to current player" style="rounded=0;whiteSpace=wrap;html=1;fillColor=#dae8fc;strokeColor=#6c8ebf;" parent="1" vertex="1">
          <mxGeometry x="1178" y="1368" width="120" height="60" as="geometry" />
        </mxCell>
        <mxCell id="jPTdnYjaCiqCl4uZB02P-324" style="edgeStyle=orthogonalEdgeStyle;rounded=0;orthogonalLoop=1;jettySize=auto;html=1;" parent="1" source="jPTdnYjaCiqCl4uZB02P-323" edge="1">
          <mxGeometry relative="1" as="geometry">
            <mxPoint x="1310" y="1000" as="targetPoint" />
          </mxGeometry>
        </mxCell>
        <mxCell id="jPTdnYjaCiqCl4uZB02P-325" value="yes" style="edgeLabel;html=1;align=center;verticalAlign=middle;resizable=0;points=[];" parent="jPTdnYjaCiqCl4uZB02P-324" vertex="1" connectable="0">
          <mxGeometry x="-0.789" y="-8" relative="1" as="geometry">
            <mxPoint as="offset" />
          </mxGeometry>
        </mxCell>
        <mxCell id="jPTdnYjaCiqCl4uZB02P-328" style="edgeStyle=orthogonalEdgeStyle;rounded=0;orthogonalLoop=1;jettySize=auto;html=1;entryX=0.5;entryY=0;entryDx=0;entryDy=0;exitX=1;exitY=0.5;exitDx=0;exitDy=0;" parent="1" source="jPTdnYjaCiqCl4uZB02P-323" target="jPTdnYjaCiqCl4uZB02P-330" edge="1">
          <mxGeometry relative="1" as="geometry">
            <mxPoint x="1468" y="948" as="targetPoint" />
          </mxGeometry>
        </mxCell>
        <mxCell id="jPTdnYjaCiqCl4uZB02P-323" value="answer = true" style="rhombus;whiteSpace=wrap;html=1;" parent="1" vertex="1">
          <mxGeometry x="1338" y="868" width="80" height="80" as="geometry" />
        </mxCell>
        <mxCell id="jPTdnYjaCiqCl4uZB02P-326" style="edgeStyle=orthogonalEdgeStyle;rounded=0;orthogonalLoop=1;jettySize=auto;html=1;entryX=0.5;entryY=0;entryDx=0;entryDy=0;" parent="1" source="jPTdnYjaCiqCl4uZB02P-206" target="jPTdnYjaCiqCl4uZB02P-323" edge="1">
          <mxGeometry relative="1" as="geometry" />
        </mxCell>
        <mxCell id="jPTdnYjaCiqCl4uZB02P-329" value="no" style="text;html=1;align=center;verticalAlign=middle;resizable=0;points=[];autosize=1;strokeColor=none;fillColor=none;" parent="1" vertex="1">
          <mxGeometry x="1415" y="888" width="40" height="30" as="geometry" />
        </mxCell>
        <mxCell id="jPTdnYjaCiqCl4uZB02P-331" style="edgeStyle=orthogonalEdgeStyle;rounded=0;orthogonalLoop=1;jettySize=auto;html=1;" parent="1" source="jPTdnYjaCiqCl4uZB02P-330" edge="1">
          <mxGeometry relative="1" as="geometry">
            <mxPoint x="1350" y="750" as="targetPoint" />
            <Array as="points">
              <mxPoint x="1530" y="1010" />
              <mxPoint x="1530" y="750" />
            </Array>
          </mxGeometry>
        </mxCell>
        <mxCell id="jPTdnYjaCiqCl4uZB02P-330" value="update gameBoard&lt;div&gt;updateScores&lt;/div&gt;" style="rounded=0;whiteSpace=wrap;html=1;" parent="1" vertex="1">
          <mxGeometry x="1415" y="980" width="80" height="60" as="geometry" />
        </mxCell>
        <mxCell id="EAi8XYDNq9yRTC16jCvn-22" style="edgeStyle=orthogonalEdgeStyle;rounded=0;orthogonalLoop=1;jettySize=auto;html=1;" edge="1" parent="1" source="EAi8XYDNq9yRTC16jCvn-2">
          <mxGeometry relative="1" as="geometry">
            <mxPoint x="740" y="1350" as="targetPoint" />
            <Array as="points">
              <mxPoint x="1070" y="2170" />
              <mxPoint x="1070" y="1350" />
            </Array>
          </mxGeometry>
        </mxCell>
        <mxCell id="EAi8XYDNq9yRTC16jCvn-2" value="are there still contestants who can buzz in?" style="rhombus;whiteSpace=wrap;html=1;" vertex="1" parent="1">
          <mxGeometry x="900" y="2120" width="117" height="100" as="geometry" />
        </mxCell>
        <mxCell id="EAi8XYDNq9yRTC16jCvn-7" value="no" style="text;html=1;align=center;verticalAlign=middle;resizable=0;points=[];autosize=1;strokeColor=none;fillColor=none;" vertex="1" parent="1">
          <mxGeometry x="900" y="2060" width="40" height="30" as="geometry" />
        </mxCell>
        <mxCell id="EAi8XYDNq9yRTC16jCvn-9" value="yes" style="text;html=1;align=center;verticalAlign=middle;resizable=0;points=[];autosize=1;strokeColor=none;fillColor=none;" vertex="1" parent="1">
          <mxGeometry x="770" y="1783" width="40" height="30" as="geometry" />
        </mxCell>
        <mxCell id="EAi8XYDNq9yRTC16jCvn-11" value="yes" style="text;html=1;align=center;verticalAlign=middle;resizable=0;points=[];autosize=1;strokeColor=none;fillColor=none;" vertex="1" parent="1">
          <mxGeometry x="740" y="2060" width="40" height="30" as="geometry" />
        </mxCell>
        <mxCell id="EAi8XYDNq9yRTC16jCvn-12" style="edgeStyle=orthogonalEdgeStyle;rounded=0;orthogonalLoop=1;jettySize=auto;html=1;entryX=0.425;entryY=0.05;entryDx=0;entryDy=0;entryPerimeter=0;" edge="1" parent="1" source="jPTdnYjaCiqCl4uZB02P-318" target="jPTdnYjaCiqCl4uZB02P-162">
          <mxGeometry relative="1" as="geometry" />
        </mxCell>
        <mxCell id="EAi8XYDNq9yRTC16jCvn-14" style="edgeStyle=orthogonalEdgeStyle;rounded=0;orthogonalLoop=1;jettySize=auto;html=1;entryX=0.579;entryY=-0.008;entryDx=0;entryDy=0;entryPerimeter=0;" edge="1" parent="1" source="jPTdnYjaCiqCl4uZB02P-183" target="jPTdnYjaCiqCl4uZB02P-144">
          <mxGeometry relative="1" as="geometry" />
        </mxCell>
        <mxCell id="EAi8XYDNq9yRTC16jCvn-15" style="edgeStyle=orthogonalEdgeStyle;rounded=0;orthogonalLoop=1;jettySize=auto;html=1;entryX=0.319;entryY=0.075;entryDx=0;entryDy=0;entryPerimeter=0;" edge="1" parent="1" source="jPTdnYjaCiqCl4uZB02P-183" target="jPTdnYjaCiqCl4uZB02P-231">
          <mxGeometry relative="1" as="geometry">
            <Array as="points">
              <mxPoint x="620" y="1818" />
              <mxPoint x="620" y="2210" />
              <mxPoint x="706" y="2210" />
            </Array>
          </mxGeometry>
        </mxCell>
        <mxCell id="EAi8XYDNq9yRTC16jCvn-17" style="edgeStyle=orthogonalEdgeStyle;rounded=0;orthogonalLoop=1;jettySize=auto;html=1;" edge="1" parent="1" source="EAi8XYDNq9yRTC16jCvn-16" target="jPTdnYjaCiqCl4uZB02P-231">
          <mxGeometry relative="1" as="geometry" />
        </mxCell>
        <mxCell id="EAi8XYDNq9yRTC16jCvn-19" style="edgeStyle=orthogonalEdgeStyle;rounded=0;orthogonalLoop=1;jettySize=auto;html=1;entryX=0.5;entryY=0;entryDx=0;entryDy=0;" edge="1" parent="1" source="EAi8XYDNq9yRTC16jCvn-16" target="EAi8XYDNq9yRTC16jCvn-2">
          <mxGeometry relative="1" as="geometry" />
        </mxCell>
        <mxCell id="EAi8XYDNq9yRTC16jCvn-16" value="is answer = true?" style="rhombus;whiteSpace=wrap;html=1;" vertex="1" parent="1">
          <mxGeometry x="810" y="2050" width="80" height="80" as="geometry" />
        </mxCell>
        <mxCell id="EAi8XYDNq9yRTC16jCvn-18" style="edgeStyle=orthogonalEdgeStyle;rounded=0;orthogonalLoop=1;jettySize=auto;html=1;entryX=0.5;entryY=0;entryDx=0;entryDy=0;" edge="1" parent="1" source="jPTdnYjaCiqCl4uZB02P-147" target="EAi8XYDNq9yRTC16jCvn-16">
          <mxGeometry relative="1" as="geometry" />
        </mxCell>
        <mxCell id="EAi8XYDNq9yRTC16jCvn-20" style="edgeStyle=orthogonalEdgeStyle;rounded=0;orthogonalLoop=1;jettySize=auto;html=1;entryX=0.59;entryY=-0.05;entryDx=0;entryDy=0;entryPerimeter=0;" edge="1" parent="1" source="EAi8XYDNq9yRTC16jCvn-2" target="jPTdnYjaCiqCl4uZB02P-231">
          <mxGeometry relative="1" as="geometry" />
        </mxCell>
        <mxCell id="EAi8XYDNq9yRTC16jCvn-21" value="no" style="text;html=1;align=center;verticalAlign=middle;resizable=0;points=[];autosize=1;strokeColor=none;fillColor=none;" vertex="1" parent="1">
          <mxGeometry x="860" y="2148" width="40" height="30" as="geometry" />
        </mxCell>
        <mxCell id="EAi8XYDNq9yRTC16jCvn-23" value="yes" style="text;html=1;align=center;verticalAlign=middle;resizable=0;points=[];autosize=1;strokeColor=none;fillColor=none;" vertex="1" parent="1">
          <mxGeometry x="1020" y="2138" width="40" height="30" as="geometry" />
        </mxCell>
        <mxCell id="EAi8XYDNq9yRTC16jCvn-24" value="display question" style="shape=parallelogram;perimeter=parallelogramPerimeter;whiteSpace=wrap;html=1;fixedSize=1;fillColor=#60a917;fontColor=#ffffff;strokeColor=#2D7600;" vertex="1" parent="1">
          <mxGeometry x="680" y="1628" width="120" height="60" as="geometry" />
        </mxCell>
        <mxCell id="EAi8XYDNq9yRTC16jCvn-28" style="edgeStyle=orthogonalEdgeStyle;rounded=0;orthogonalLoop=1;jettySize=auto;html=1;entryX=0.5;entryY=0;entryDx=0;entryDy=0;" edge="1" parent="1" source="EAi8XYDNq9yRTC16jCvn-25" target="EAi8XYDNq9yRTC16jCvn-26">
          <mxGeometry relative="1" as="geometry" />
        </mxCell>
        <mxCell id="EAi8XYDNq9yRTC16jCvn-25" value="enter&lt;br&gt;wagerAmount" style="shape=parallelogram;perimeter=parallelogramPerimeter;whiteSpace=wrap;html=1;fixedSize=1;fillColor=#dae8fc;strokeColor=#6c8ebf;" vertex="1" parent="1">
          <mxGeometry x="1183" y="1468" width="120" height="60" as="geometry" />
        </mxCell>
        <mxCell id="EAi8XYDNq9yRTC16jCvn-29" style="edgeStyle=orthogonalEdgeStyle;rounded=0;orthogonalLoop=1;jettySize=auto;html=1;entryX=0.5;entryY=0;entryDx=0;entryDy=0;" edge="1" parent="1" source="EAi8XYDNq9yRTC16jCvn-26" target="jPTdnYjaCiqCl4uZB02P-64">
          <mxGeometry relative="1" as="geometry" />
        </mxCell>
        <mxCell id="EAi8XYDNq9yRTC16jCvn-26" value="display question" style="shape=parallelogram;perimeter=parallelogramPerimeter;whiteSpace=wrap;html=1;fixedSize=1;fillColor=#dae8fc;strokeColor=#6c8ebf;" vertex="1" parent="1">
          <mxGeometry x="1178" y="1560" width="120" height="60" as="geometry" />
        </mxCell>
      </root>
    </mxGraphModel>
  </diagram>
</mxfile>
